<svg xmlns="http://www.w3.org/2000/svg" width="159" height="43" fill="none"><g fill="#fff"><path d="M44.125 14.269h-4.18v6.119h4.18c1.938 0 3.344-.805 3.344-2.98 0-2.173-1.443-3.145-3.344-3.145v.006Z"/><path fill-rule="evenodd" d="M.5 42.454h62.477V0H.5v42.454Zm33.072-9.283h-7.556l-4.484-7.959-4.886 7.959h-7.16l8.497-12.541-7.79-11.34h7.326l4.02 7.425 4.947-7.425h7.092l-8.435 11.34 8.428 12.54Zm11.494-7.959h-5.122v7.959h-6.218V9.29h11.34c4.447 0 8.627 2.037 8.627 7.692 0 5.654-3.381 8.23-8.627 8.23ZM83.018 9.625H72.65V33.12h4.113v-9.017h6.255c1.393.05 2.78-.192 4.075-.706a6.314 6.314 0 0 0 2.44-1.796 6.141 6.141 0 0 0 1.17-2.353c.199-.768.304-1.56.31-2.354a9.853 9.853 0 0 0-.31-2.372 6.175 6.175 0 0 0-1.17-2.372 6.474 6.474 0 0 0-2.44-1.808 9.858 9.858 0 0 0-4.075-.718Zm-.236 11.122h-6.025v-7.766h6.087c.514 0 1.035.056 1.542.168.465.099.905.31 1.282.606a3 3 0 0 1 .892 1.202c.236.607.347 1.257.328 1.907a4.018 4.018 0 0 1-.377 1.858 3.31 3.31 0 0 1-.985 1.183 3.91 3.91 0 0 1-1.331.644c-.459.13-.936.198-1.413.198Z" clip-rule="evenodd"/><path d="M99.067 30.619h-.003.006-.003Z"/><path fill-rule="evenodd" d="M99.064 33.58a9.244 9.244 0 0 1-3.635-.676 7.737 7.737 0 0 1-2.7-1.852 8.062 8.062 0 0 1-1.679-2.83 11.566 11.566 0 0 1 0-7.209 8.062 8.062 0 0 1 1.678-2.83 7.655 7.655 0 0 1 2.7-1.852 10.147 10.147 0 0 1 7.271 0 7.826 7.826 0 0 1 2.701 1.852 8.063 8.063 0 0 1 1.678 2.83 11.566 11.566 0 0 1 0 7.21 8.008 8.008 0 0 1-1.678 2.83 7.66 7.66 0 0 1-2.701 1.851 9.35 9.35 0 0 1-3.635.675Zm.003-2.961a4.311 4.311 0 0 0 2.171-.526 4.542 4.542 0 0 0 1.511-1.382 6.13 6.13 0 0 0 .873-1.926 8.523 8.523 0 0 0 0-4.36 5.698 5.698 0 0 0-.873-1.926 4.702 4.702 0 0 0-1.511-1.368c-1.363-.7-2.98-.7-4.342 0-.6.34-1.114.805-1.517 1.368a5.958 5.958 0 0 0-.873 1.926 8.665 8.665 0 0 0 0 4.36c.173.688.47 1.338.873 1.926.396.57.91 1.04 1.517 1.382a4.28 4.28 0 0 0 2.171.526Z" clip-rule="evenodd"/><path d="M110.998 16.103h-3.982l5.264 17.012h3.945l3.128-12.634h.062l3.165 12.634h3.845l5.333-17.012h-3.815l-3.456 12.702h-.068l-3.06-12.702h-3.784l-3.189 12.702h-.068l-3.32-12.702Z"/><path fill-rule="evenodd" d="M134.662 25.584c0 .644.093 1.288.279 1.907.173.589.458 1.134.842 1.61.384.471.867.843 1.412 1.103a4.714 4.714 0 0 0 2.038.415 4.56 4.56 0 0 0 2.651-.706 4.223 4.223 0 0 0 1.498-2.124h3.555a7.02 7.02 0 0 1-2.768 4.292 7.402 7.402 0 0 1-2.285 1.114 9.144 9.144 0 0 1-2.651.378 8.969 8.969 0 0 1-3.555-.656 7.342 7.342 0 0 1-2.614-1.846 7.738 7.738 0 0 1-1.61-2.83 11.606 11.606 0 0 1-.545-3.623c0-1.17.192-2.335.576-3.437a8.81 8.81 0 0 1 1.648-2.862 7.721 7.721 0 0 1 6.007-2.675 7.599 7.599 0 0 1 3.604.842 7.973 7.973 0 0 1 2.651 2.224 9.046 9.046 0 0 1 1.53 3.177 9.717 9.717 0 0 1 .248 3.703h-12.504l-.007-.006Zm8.757-2.471a6.163 6.163 0 0 0-.377-1.71 4.48 4.48 0 0 0-.855-1.43 4.114 4.114 0 0 0-1.319-.985 3.784 3.784 0 0 0-1.728-.378 4.593 4.593 0 0 0-1.796.347c-.52.223-.991.545-1.381.954-.39.415-.706.904-.923 1.43a5.009 5.009 0 0 0-.378 1.778h8.757v-.006Z" clip-rule="evenodd"/><path d="M152.047 16.102h-3.524v17.013h3.753v-8.094a7.782 7.782 0 0 1 .359-2.503 5.412 5.412 0 0 1 .991-1.826c.403-.483.898-.861 1.468-1.121a4.336 4.336 0 0 1 1.79-.378c.266 0 .539.018.805.05.279.037.545.074.811.117v-3.617l-.116-.016c-.137-.02-.267-.037-.398-.052-.297-.03-.601-.03-.904-.03-.576 0-1.146.11-1.678.327a5.855 5.855 0 0 0-1.499.874 6.21 6.21 0 0 0-1.152 1.201c-.297.403-.514.86-.638 1.35h-.068v-3.295Z"/></g></svg>
